<svg width="78" height="62" viewBox="0 0 78 62" fill="none" xmlns="http://www.w3.org/2000/svg">
<g clip-path="url(#clip0_266_6451)">
<path d="M30.5701 25C30.5701 24.191 31.2259 23.5352 32.0349 23.5352H45.9653C46.7743 23.5352 47.4301 24.191 47.4301 25C47.4301 25.809 46.7743 26.4648 45.9653 26.4648H32.0349C31.2259 26.4648 30.5701 25.809 30.5701 25Z" fill="white"/>
<path d="M59.6055 17.6758H58.043V16.6992C58.043 14.2761 56.0715 12.3047 53.6484 12.3047H24.3516C21.9285 12.3047 19.957 14.2761 19.957 16.6992V17.6758H18.3945C15.9714 17.6758 14 19.6472 14 22.0703V27.9297C14 30.3528 15.9714 32.3242 18.3945 32.3242H19.957V33.3008C19.957 35.7239 21.9285 37.6953 24.3516 37.6953H30.3937C32.2346 37.6953 34.0096 37.1441 35.5267 36.1012C37.6042 34.6733 40.3962 34.6733 42.4737 36.1012C43.9908 37.1441 45.7654 37.6953 47.6063 37.6953H53.6484C56.0715 37.6953 58.043 35.7239 58.043 33.3008V32.3242H59.6055C62.0286 32.3242 64 30.3528 64 27.9297V22.0703C64 19.6472 62.0286 17.6758 59.6055 17.6758ZM18.3945 29.3945C17.587 29.3945 16.9297 28.7373 16.9297 27.9297V22.0703C16.9297 21.2627 17.587 20.6055 18.3945 20.6055H19.957V29.3945H18.3945ZM55.1133 33.3008C55.1133 34.1084 54.456 34.7656 53.6484 34.7656H47.6063C46.3608 34.7656 45.1596 34.3925 44.1331 33.6868C42.616 32.6443 40.841 32.093 39 32.093C37.159 32.093 35.384 32.6443 33.8669 33.6868C32.8404 34.3925 31.6392 34.7656 30.3937 34.7656H24.3516C23.544 34.7656 22.8867 34.1084 22.8867 33.3008V16.6992C22.8867 15.8916 23.544 15.2344 24.3516 15.2344H53.6484C54.456 15.2344 55.1133 15.8916 55.1133 16.6992V33.3008ZM61.0703 27.9297C61.0703 28.7373 60.413 29.3945 59.6055 29.3945H58.043V20.6055H59.6055C60.413 20.6055 61.0703 21.2627 61.0703 22.0703V27.9297Z" fill="white"/>
</g>
<path d="M13.84 46.8L6.816 58H3.696L1.152 46.8H4.4L6 54.08L10.576 46.8H13.84ZM23.8076 50.368C23.8076 51.392 23.5356 52.2773 22.9916 53.024C22.4476 53.76 21.685 54.2987 20.7036 54.64L22.6076 58H19.2956L17.6316 55.024H16.0316L15.4396 58H12.2716L14.5116 46.8H19.2956C20.725 46.8 21.8343 47.1147 22.6236 47.744C23.413 48.3733 23.8076 49.248 23.8076 50.368ZM20.6076 50.672C20.6076 50.2133 20.453 49.872 20.1436 49.648C19.8343 49.4133 19.4023 49.296 18.8476 49.296H17.1836L16.5116 52.576H18.3996C19.1036 52.576 19.6476 52.4107 20.0316 52.08C20.4156 51.7493 20.6076 51.28 20.6076 50.672ZM32.9476 58.224C32.0196 58.224 31.1396 58.112 30.3076 57.888C29.4756 57.664 28.7983 57.376 28.2756 57.024L29.5236 54.656C30.089 55.0187 30.6916 55.296 31.3316 55.488C31.9716 55.6693 32.6116 55.76 33.2516 55.76C33.8596 55.76 34.329 55.6747 34.6596 55.504C35.001 55.3227 35.1716 55.0773 35.1716 54.768C35.1716 54.5013 35.017 54.2933 34.7076 54.144C34.409 53.9947 33.9396 53.8347 33.2996 53.664C32.5743 53.472 31.9716 53.28 31.4916 53.088C31.0116 52.8853 30.5956 52.5813 30.2436 52.176C29.9023 51.7707 29.7316 51.2373 29.7316 50.576C29.7316 49.776 29.9503 49.0773 30.3876 48.48C30.825 47.872 31.449 47.4027 32.2596 47.072C33.0703 46.7413 34.0196 46.576 35.1076 46.576C35.9076 46.576 36.6543 46.6613 37.3476 46.832C38.041 46.992 38.6383 47.2267 39.1396 47.536L37.9876 49.888C37.5503 49.6107 37.065 49.4027 36.5316 49.264C36.009 49.1147 35.4703 49.04 34.9156 49.04C34.2863 49.04 33.7903 49.1413 33.4276 49.344C33.0756 49.5467 32.8996 49.808 32.8996 50.128C32.8996 50.4053 33.0543 50.6187 33.3636 50.768C33.673 50.9173 34.153 51.0773 34.8036 51.248C35.529 51.4293 36.1263 51.616 36.5956 51.808C37.0756 52 37.4863 52.2933 37.8276 52.688C38.169 53.0827 38.3396 53.6 38.3396 54.24C38.3396 55.0293 38.1156 55.728 37.6676 56.336C37.2303 56.9333 36.601 57.3973 35.7796 57.728C34.969 58.0587 34.025 58.224 32.9476 58.224ZM52.011 46.8L49.771 58H46.603L47.467 53.648H43.163L42.299 58H39.131L41.371 46.8H44.539L43.707 50.992H48.011L48.843 46.8H52.011ZM58.0696 58.224C56.939 58.224 55.9523 58.016 55.1096 57.6C54.2776 57.184 53.6323 56.6027 53.1736 55.856C52.7256 55.1093 52.5016 54.256 52.5016 53.296C52.5016 52.016 52.795 50.864 53.3816 49.84C53.979 48.816 54.8056 48.016 55.8616 47.44C56.9283 46.864 58.139 46.576 59.4936 46.576C60.6243 46.576 61.6056 46.784 62.4376 47.2C63.2803 47.616 63.9256 48.1973 64.3736 48.944C64.8323 49.6907 65.0616 50.544 65.0616 51.504C65.0616 52.784 64.763 53.936 64.1656 54.96C63.579 55.984 62.7523 56.784 61.6856 57.36C60.6296 57.936 59.4243 58.224 58.0696 58.224ZM58.3416 55.6C59.0456 55.6 59.6643 55.424 60.1976 55.072C60.731 54.72 61.1416 54.2507 61.4296 53.664C61.7176 53.0667 61.8616 52.4107 61.8616 51.696C61.8616 50.9387 61.627 50.336 61.1576 49.888C60.699 49.4293 60.0536 49.2 59.2216 49.2C58.5176 49.2 57.899 49.376 57.3656 49.728C56.8323 50.08 56.4216 50.5547 56.1336 51.152C55.8456 51.7387 55.7016 52.3893 55.7016 53.104C55.7016 53.8613 55.931 54.4693 56.3896 54.928C56.859 55.376 57.5096 55.6 58.3416 55.6ZM72.5289 46.8C73.9795 46.8 75.0995 47.1147 75.8889 47.744C76.6782 48.3733 77.0729 49.2587 77.0729 50.4C77.0729 51.3387 76.8435 52.16 76.3849 52.864C75.9369 53.568 75.2915 54.112 74.4489 54.496C73.6169 54.88 72.6462 55.072 71.5369 55.072H69.2969L68.7209 58H65.5529L67.7929 46.8H72.5289ZM71.6809 52.576C72.3849 52.576 72.9235 52.4107 73.2969 52.08C73.6809 51.7493 73.8729 51.28 73.8729 50.672C73.8729 50.2133 73.7182 49.872 73.4089 49.648C73.1102 49.4133 72.6782 49.296 72.1129 49.296H70.4489L69.7929 52.576H71.6809Z" fill="white"/>
<defs>
<clipPath id="clip0_266_6451">
<rect width="50" height="50" fill="white" transform="translate(14)"/>
</clipPath>
</defs>
</svg>
