<svg width="17" height="14" viewBox="0 0 17 14" fill="none" xmlns="http://www.w3.org/2000/svg">
<path d="M16.2581 1.56416C15.6599 1.82971 15.017 2.00855 14.3423 2.08916C15.0313 1.67661 15.5603 1.0229 15.8089 0.243871C15.1647 0.625935 14.4507 0.903677 13.6906 1.05339C13.083 0.405097 12.2152 0 11.256 0C9.10248 0 7.52003 2.00923 8.00642 4.095C5.2351 3.95613 2.77742 2.62839 1.13197 0.610355C0.258097 2.10948 0.678774 4.07061 2.16368 5.06371C1.61768 5.0461 1.10284 4.89639 0.65371 4.64642C0.617129 6.19161 1.72471 7.63723 3.32884 7.959C2.85939 8.08636 2.34523 8.11616 1.82226 8.0159C2.24632 9.34094 3.47787 10.3049 4.93839 10.332C3.53613 11.4315 1.76942 11.9226 0 11.7139C1.4761 12.6603 3.22994 13.2124 5.11316 13.2124C11.3061 13.2124 14.805 7.98203 14.5936 3.2909C15.2453 2.8201 15.811 2.23277 16.2581 1.56416Z" fill="white"/>
</svg>
